<svg width="28" height="28" viewBox="0 0 60 60" fill="none" xmlns="http://www.w3.org/2000/svg">
<path d="M47.3158 49V47.5H45.158L45.9098 49.5226L47.3158 49ZM48.7385 52.8277L50.1445 52.3051L48.7385 52.8277ZM47.1897 53.9674L46.2726 55.1544H46.2726L47.1897 53.9674ZM40.7613 49L41.6785 47.8131L41.2733 47.5H40.7613V49ZM14.3865 44L15.7925 44.5226L16.5442 42.5H14.3865V44ZM12.2184 49.8331L10.8123 49.3105H10.8123L12.2184 49.8331ZM13.7671 50.9728L14.6843 52.1597L13.7671 50.9728ZM22.7908 44V42.5H22.2788L21.8736 42.8131L22.7908 44ZM27.8962 14.5L28.9569 13.4393C28.6683 13.1508 28.2746 12.9922 27.8666 13.0003C27.4586 13.0084 27.0714 13.1823 26.7945 13.4821L27.8962 14.5ZM20.3289 22.6901L21.3819 23.7584L21.4068 23.7338L21.4306 23.7081L20.3289 22.6901ZM19.6332 24.556H21.1332V24.4825L21.126 24.4093L19.6332 24.556ZM33 36.5L34.4435 36.9079L34.472 36.8068L34.4862 36.7027L33 36.5ZM34.5 25.5L35.9862 25.7027L36 25.6018V25.5H34.5ZM27.8962 23.1806L26.6878 22.2919C26.3527 22.7476 26.3024 23.353 26.5577 23.8577C26.813 24.3625 27.3306 24.6806 27.8962 24.6806V23.1806ZM29.5 21L30.7084 21.8887L30.7774 21.7949L30.8311 21.6915L29.5 21ZM57.696 26C57.696 24.6193 56.5768 23.5 55.196 23.5V26.5C54.9199 26.5 54.696 26.2761 54.696 26H57.696ZM57.696 48V26H54.696V48H57.696ZM55.196 50.5C56.5768 50.5 57.696 49.3807 57.696 48H54.696C54.696 47.7239 54.9199 47.5 55.196 47.5V50.5ZM47.3158 50.5H55.196V47.5H47.3158V50.5ZM50.1445 52.3051L48.7218 48.4774L45.9098 49.5226L47.3325 53.3503L50.1445 52.3051ZM46.2726 55.1544C48.2616 56.6914 51.0203 54.6614 50.1445 52.3051L47.3325 53.3503C47.3005 53.2642 47.2918 53.1392 47.3337 53.0138C47.3715 52.9011 47.4379 52.8227 47.5048 52.7734C47.5718 52.7242 47.6664 52.6841 47.7853 52.6816C47.9174 52.6788 48.0342 52.7243 48.1069 52.7805L46.2726 55.1544ZM39.8441 50.1869L46.2726 55.1544L48.1069 52.7805L41.6785 47.8131L39.8441 50.1869ZM26 50.5H40.7613V47.5H26V50.5ZM23.5 48C23.5 49.3807 24.6193 50.5 26 50.5V47.5C26.2761 47.5 26.5 47.7239 26.5 48H23.5ZM55.196 23.5H43V26.5H55.196V23.5ZM4.5 11C4.5 11.2761 4.27614 11.5 4 11.5V8.5C2.61929 8.5 1.5 9.61929 1.5 11H4.5ZM4.5 43V11H1.5V43H4.5ZM4 42.5C4.27614 42.5 4.5 42.7239 4.5 43H1.5C1.5 44.3807 2.61928 45.5 4 45.5V42.5ZM14.3865 42.5H4V45.5H14.3865V42.5ZM13.6244 50.3557L15.7925 44.5226L12.9804 43.4774L10.8123 49.3105L13.6244 50.3557ZM12.85 49.7859C12.9227 49.7297 13.0394 49.6842 13.1716 49.687C13.2905 49.6895 13.3851 49.7296 13.452 49.7788C13.519 49.8281 13.5854 49.9065 13.6231 50.0192C13.6651 50.1446 13.6564 50.2696 13.6244 50.3557L10.8123 49.3105C9.93655 51.6668 12.6952 53.6968 14.6843 52.1597L12.85 49.7859ZM21.8736 42.8131L12.85 49.7859L14.6843 52.1597L23.708 45.1869L21.8736 42.8131ZM42 42.5H22.7908V45.5H42V42.5ZM41.5 43C41.5 42.7239 41.7239 42.5 42 42.5V45.5C43.3807 45.5 44.5 44.3807 44.5 43H41.5ZM41.5 11V43H44.5V11H41.5ZM42 11.5C41.7239 11.5 41.5 11.2761 41.5 11H44.5C44.5 9.61929 43.3807 8.5 42 8.5V11.5ZM4 11.5H42V8.5H4V11.5ZM21.4306 23.7081L28.9979 15.5179L26.7945 13.4821L19.2271 21.6722L21.4306 23.7081ZM21.126 24.4093C21.1056 24.2017 21.1739 23.9634 21.3819 23.7584L19.2758 21.6219C18.4313 22.4544 18.0303 23.5824 18.1404 24.7028L21.126 24.4093ZM21.1332 37.2224V24.556H18.1332V37.2224H21.1332ZM20.6332 36.7224C20.9094 36.7224 21.1332 36.9463 21.1332 37.2224H18.1332C18.1332 38.6032 19.2525 39.7224 20.6332 39.7224V36.7224ZM30.7988 36.7224H20.6332V39.7224H30.7988V36.7224ZM31.5565 36.0921C31.4784 36.3686 31.3667 36.5142 31.2806 36.5864C31.21 36.6455 31.08 36.7224 30.7988 36.7224V39.7224C31.7187 39.7224 32.5481 39.4381 33.2071 38.8861C33.8507 38.347 34.239 37.6314 34.4435 36.9079L31.5565 36.0921ZM33.0138 25.2973L31.5138 36.2973L34.4862 36.7027L35.9862 25.7027L33.0138 25.2973ZM32.7174 24.6806C32.607 24.6806 32.6646 24.643 32.7798 24.7729C32.8706 24.8754 33 25.0955 33 25.5H36C36 23.3465 34.4931 21.6806 32.7174 21.6806V24.6806ZM27.8962 24.6806H32.7174V21.6806H27.8962V24.6806ZM28.2916 20.1113L26.6878 22.2919L29.1046 24.0694L30.7084 21.8887L28.2916 20.1113ZM26.8356 15.5607C28.0499 16.775 28.5214 17.5317 28.6677 18.1149C28.7922 18.6112 28.7364 19.2161 28.1689 20.3085L30.8311 21.6915C31.5624 20.2839 31.9547 18.8888 31.5776 17.3851C31.2222 15.9683 30.2425 14.725 28.9569 13.4393L26.8356 15.5607ZM12 24.1255H18.6332V21.1255H12V24.1255ZM18.1332 23.6255V37.9327H21.1332V23.6255H18.1332ZM18.6332 37.4327H12V40.4327H18.6332V37.4327ZM12.5 37.9327V23.6255H9.5V37.9327H12.5ZM12 37.4327C12.2761 37.4327 12.5 37.6565 12.5 37.9327H9.5C9.5 39.3134 10.6193 40.4327 12 40.4327V37.4327ZM18.1332 37.9327C18.1332 37.6565 18.3571 37.4327 18.6332 37.4327V40.4327C20.0139 40.4327 21.1332 39.3134 21.1332 37.9327H18.1332ZM18.6332 24.1255C18.3571 24.1255 18.1332 23.9016 18.1332 23.6255H21.1332C21.1332 22.2447 20.0139 21.1255 18.6332 21.1255V24.1255ZM12 21.1255C10.6193 21.1255 9.5 22.2447 9.5 23.6255H12.5C12.5 23.9016 12.2761 24.1255 12 24.1255V21.1255ZM23.5 44V48H26.5V44H23.5Z" fill="black"/>
</svg>
