<svg xmlns="http://www.w3.org/2000/svg" width="60" height="60" fill="none" xmlns:v="https://vecta.io/nano"><mask id="A" fill="#fff"><path fill-rule="evenodd" d="M41.051 25.526a14.53 14.53 0 0 1-14.526 14.526A14.53 14.53 0 0 1 12 25.526 14.53 14.53 0 0 1 26.526 11a14.53 14.53 0 0 1 14.526 14.526zm-3.593 12.393c-2.913 2.572-6.74 4.133-10.932 4.133A16.53 16.53 0 0 1 10 25.526 16.53 16.53 0 0 1 26.526 9a16.53 16.53 0 0 1 16.526 16.526c0 4.192-1.561 8.019-4.133 10.932l.81.81 8.857 8.857L50 47.539l-.047.047-1.368 1.368-.047.047-1.414-1.414-8.857-8.857-.81-.81z"/></mask><path d="M37.458 37.919l1.414-1.414-1.329-1.329-1.409 1.244 1.324 1.499zm1.461-1.461l-1.499-1.324-1.244 1.409 1.329 1.329 1.414-1.414zm.81.81l1.414-1.414h0l-1.414 1.414zm8.857 8.857l-1.414 1.414h0l1.414-1.414zM50 47.539l1.414 1.414 1.414-1.414-1.414-1.414L50 47.539zm-.047.047L51.368 49h0l-1.414-1.414zm-1.368 1.368l-1.414-1.414h0l1.414 1.414zm-.047.047l-1.414 1.414 1.414 1.414 1.414-1.414L48.539 49zm-22.014-6.949a16.53 16.53 0 0 0 16.526-16.526h-4a12.53 12.53 0 0 1-12.526 12.526v4zM10 25.526a16.53 16.53 0 0 0 16.526 16.526v-4A12.53 12.53 0 0 1 14 25.526h-4zM26.526 9A16.53 16.53 0 0 0 10 25.526h4A12.53 12.53 0 0 1 26.526 13V9zm16.526 16.526A16.53 16.53 0 0 0 26.526 9v4a12.53 12.53 0 0 1 12.526 12.526h4zM26.526 44.051c4.698 0 8.991-1.751 12.256-4.633l-2.647-2.999c-2.562 2.262-5.923 3.632-9.609 3.632v4zM8 25.526a18.53 18.53 0 0 0 18.526 18.526v-4A14.53 14.53 0 0 1 12 25.526H8zM26.526 7A18.53 18.53 0 0 0 8 25.526h4A14.53 14.53 0 0 1 26.526 11V7zm18.526 18.526A18.53 18.53 0 0 0 26.526 7v4a14.53 14.53 0 0 1 14.526 14.526h4zm-4.633 12.256c2.882-3.265 4.633-7.558 4.633-12.256h-4c0 3.686-1.37 7.047-3.632 9.609l2.999 2.647zm.725-1.928l-.81-.81-2.828 2.828.81.81 2.828-2.828zM50 44.711l-8.857-8.857-2.828 2.828 8.857 8.857L50 44.711zm1.414 1.414L50 44.711l-2.828 2.828 1.414 1.414 2.828-2.828zM51.368 49l.046-.046-2.828-2.828-.047.046L51.368 49zM50 50.368L51.368 49l-2.829-2.828-1.368 1.368L50 50.368zm-.047.046l.047-.046-2.828-2.829-.046.047 2.828 2.828zM45.711 49l1.414 1.414 2.828-2.828-1.414-1.414L45.711 49zm-8.857-8.857L45.711 49l2.828-2.828-8.857-8.857-2.828 2.828zm-.81-.81l.81.81 2.828-2.828-.81-.81-2.828 2.828z" fill="#000" mask="url(#A)"/></svg>