<svg width="60" height="60" viewBox="0 0 60 60" fill="none" xmlns="http://www.w3.org/2000/svg">
<mask id="path-1-inside-1_463_479" fill="white">
<path fill-rule="evenodd" clip-rule="evenodd" d="M28 10H10V34H28V10ZM50 26H32V50H50V26ZM32 10H50V22H32V10ZM28 38H10V50H28V38Z"/>
</mask>
<path fill-rule="evenodd" clip-rule="evenodd" d="M28 10H10V34H28V10ZM50 26H32V50H50V26ZM32 10H50V22H32V10ZM28 38H10V50H28V38Z" fill="black"/>
<path d="M10 10V9H9V10H10ZM28 10H29V9H28V10ZM10 34H9V35H10V34ZM28 34V35H29V34H28ZM32 26V25H31V26H32ZM50 26H51V25H50V26ZM32 50H31V51H32V50ZM50 50V51H51V50H50ZM50 10H51V9H50V10ZM32 10V9H31V10H32ZM50 22V23H51V22H50ZM32 22H31V23H32V22ZM10 38V37H9V38H10ZM28 38H29V37H28V38ZM10 50H9V51H10V50ZM28 50V51H29V50H28ZM10 11H28V9H10V11ZM11 34V10H9V34H11ZM28 33H10V35H28V33ZM27 10V34H29V10H27ZM32 27H50V25H32V27ZM33 50V26H31V50H33ZM50 49H32V51H50V49ZM49 26V50H51V26H49ZM50 9H32V11H50V9ZM51 22V10H49V22H51ZM32 23H50V21H32V23ZM31 10V22H33V10H31ZM10 39H28V37H10V39ZM11 50V38H9V50H11ZM28 49H10V51H28V49ZM27 38V50H29V38H27Z" fill="black" mask="url(#path-1-inside-1_463_479)"/>
</svg>
