<svg width="60" height="60" viewBox="0 0 60 60" fill="none" xmlns="http://www.w3.org/2000/svg">
<path fill-rule="evenodd" clip-rule="evenodd" d="M30 13.5C20.8873 13.5 13.5 20.8873 13.5 30C13.5 39.1127 20.8873 46.5 30 46.5C39.1127 46.5 46.5 39.1127 46.5 30C46.5 20.8873 39.1127 13.5 30 13.5ZM10.5 30C10.5 19.2304 19.2304 10.5 30 10.5C40.7696 10.5 49.5 19.2304 49.5 30C49.5 40.7696 40.7696 49.5 30 49.5C19.2304 49.5 10.5 40.7696 10.5 30Z" fill="#777777"/>
<path d="M28.4053 34.3252C28.4053 33.1403 28.5492 32.1966 28.8369 31.4941C29.1247 30.7917 29.6494 30.1019 30.4111 29.4248C31.1813 28.7393 31.6934 28.1849 31.9473 27.7617C32.2012 27.3301 32.3281 26.8773 32.3281 26.4033C32.3281 24.973 31.668 24.2578 30.3477 24.2578C29.7214 24.2578 29.2178 24.4525 28.8369 24.8418C28.4645 25.2227 28.2699 25.7516 28.2529 26.4287H24.5713C24.5882 24.8122 25.1087 23.5469 26.1328 22.6328C27.1654 21.7188 28.5703 21.2617 30.3477 21.2617C32.1419 21.2617 33.5342 21.6976 34.5244 22.5693C35.5146 23.4326 36.0098 24.6556 36.0098 26.2383C36.0098 26.9577 35.849 27.639 35.5273 28.2822C35.2057 28.917 34.6429 29.6237 33.8389 30.4023L32.8105 31.3799C32.1673 31.9977 31.7992 32.7214 31.7061 33.5508L31.6553 34.3252H28.4053ZM28.0371 38.2227C28.0371 37.6556 28.2275 37.1901 28.6084 36.8262C28.9977 36.4538 29.4928 36.2676 30.0938 36.2676C30.6947 36.2676 31.1855 36.4538 31.5664 36.8262C31.9557 37.1901 32.1504 37.6556 32.1504 38.2227C32.1504 38.7812 31.96 39.2425 31.5791 39.6064C31.2067 39.9704 30.7116 40.1523 30.0938 40.1523C29.4759 40.1523 28.9766 39.9704 28.5957 39.6064C28.2233 39.2425 28.0371 38.7812 28.0371 38.2227Z" fill="#777777"/>
</svg>
