<svg width="338" height="354" viewBox="0 0 338 354" fill="none" xmlns="http://www.w3.org/2000/svg">
<rect x="121.141" y="240.016" width="24.0283" height="8.0051" transform="rotate(0.484513 121.141 240.016)" fill="#FDB64A"/>
<rect x="121.073" y="248.024" width="24.0283" height="8.0051" transform="rotate(0.484513 121.073 248.024)" fill="#EAA42A"/>
<rect x="121.005" y="256.028" width="24.0283" height="8.0051" transform="rotate(0.484513 121.005 256.028)" fill="#FDB748"/>
<rect x="120.802" y="280.047" width="24.0283" height="8.0051" transform="rotate(0.484513 120.802 280.047)" fill="#EAA428"/>
<rect x="120.938" y="264.034" width="24.0283" height="8.0051" transform="rotate(0.484513 120.938 264.034)" fill="#EAA428"/>
<rect x="120.735" y="288.051" width="24.0283" height="8.0051" transform="rotate(0.484513 120.735 288.051)" fill="#EAA428"/>
<rect x="120.667" y="296.058" width="24.0283" height="8.0051" transform="rotate(0.484513 120.667 296.058)" fill="#EAA428"/>
<rect x="120.599" y="304.064" width="24.0283" height="8.0051" transform="rotate(0.484513 120.599 304.064)" fill="#EAA428"/>
<rect x="120.531" y="312.07" width="24.0283" height="8.0051" transform="rotate(0.484513 120.531 312.07)" fill="#FFCB68"/>
<rect x="120.328" y="336.087" width="24.0283" height="8.0051" transform="rotate(0.484513 120.328 336.087)" fill="#FFCB68"/>
<rect x="120.464" y="320.074" width="24.0283" height="8.0051" transform="rotate(0.484513 120.464 320.074)" fill="#FFCB68"/>
<rect x="120.261" y="344.093" width="24.0283" height="8.0051" transform="rotate(0.484513 120.261 344.093)" fill="#FFCB68"/>
<rect x="120.396" y="328.081" width="24.0283" height="8.0051" transform="rotate(0.484513 120.396 328.081)" fill="#FFCB68"/>
<rect x="120.87" y="272.038" width="24.0283" height="8.0051" transform="rotate(0.484513 120.87 272.038)" fill="#EAA428"/>
<rect x="145.169" y="240.22" width="24.0283" height="8.0051" transform="rotate(0.484513 145.169 240.22)" fill="#AD3A01"/>
<rect x="145.101" y="248.228" width="24.0283" height="8.0051" transform="rotate(0.484513 145.101 248.228)" fill="#AC3A08"/>
<rect x="145.033" y="256.232" width="24.0283" height="8.0051" transform="rotate(0.484513 145.033 256.232)" fill="#E9A42C"/>
<rect x="144.83" y="280.249" width="24.0283" height="8.0051" transform="rotate(0.484513 144.83 280.249)" fill="#EAA428"/>
<rect x="144.966" y="264.238" width="24.0283" height="8.0051" transform="rotate(0.484513 144.966 264.238)" fill="#AC3A04"/>
<rect x="144.762" y="288.253" width="24.0283" height="8.0051" transform="rotate(0.484513 144.762 288.253)" fill="#AC3A04"/>
<rect x="144.695" y="296.26" width="24.0283" height="8.0051" transform="rotate(0.484513 144.695 296.26)" fill="#C15F01"/>
<rect x="144.627" y="304.269" width="24.0283" height="8.0051" transform="rotate(0.484513 144.627 304.269)" fill="#FACE65"/>
<rect x="144.56" y="312.274" width="24.0283" height="8.0051" transform="rotate(0.484513 144.56 312.274)" fill="#F18E17"/>
<rect x="144.356" y="336.291" width="24.0283" height="8.0051" transform="rotate(0.484513 144.356 336.291)" fill="#F18E17"/>
<rect x="144.492" y="320.278" width="24.0283" height="8.0051" transform="rotate(0.484513 144.492 320.278)" fill="#F18E17"/>
<rect x="144.288" y="344.296" width="24.0283" height="8.0051" transform="rotate(0.484513 144.288 344.296)" fill="#F18E17"/>
<rect x="144.424" y="328.285" width="24.0283" height="8.0051" transform="rotate(0.484513 144.424 328.285)" fill="#FBCE65"/>
<rect x="144.898" y="272.242" width="24.0283" height="8.0051" transform="rotate(0.484513 144.898 272.242)" fill="#AC3A04"/>
<rect x="73.0173" y="247.618" width="24.0283" height="8.0051" transform="rotate(0.484513 73.0173 247.618)" fill="#AC3A08"/>
<rect x="72.9492" y="255.622" width="24.0283" height="8.0051" transform="rotate(0.484513 72.9492 255.622)" fill="#EAA32D"/>
<rect x="72.7463" y="279.641" width="24.0283" height="8.0051" transform="rotate(0.484513 72.7463 279.641)" fill="#EAA428"/>
<rect x="72.8818" y="263.628" width="24.0283" height="8.0051" transform="rotate(0.484513 72.8818 263.628)" fill="#AC3B03"/>
<rect x="72.6787" y="287.645" width="24.0283" height="8.0051" transform="rotate(0.484513 72.6787 287.645)" fill="#AC3B03"/>
<rect x="72.6108" y="295.651" width="24.0283" height="8.0051" transform="rotate(0.484513 72.6108 295.651)" fill="#F28C1D"/>
<rect x="72.5432" y="303.658" width="24.0283" height="8.0051" transform="rotate(0.484513 72.5432 303.658)" fill="#FFCB66"/>
<rect x="72.4756" y="311.664" width="24.0283" height="8.0051" transform="rotate(0.484513 72.4756 311.664)" fill="#F18E17"/>
<rect x="72.2727" y="335.681" width="24.0283" height="8.0051" transform="rotate(0.484513 72.2727 335.681)" fill="#F18E17"/>
<rect x="72.408" y="319.67" width="24.0283" height="8.0051" transform="rotate(0.484513 72.408 319.67)" fill="#F18E17"/>
<rect x="72.3403" y="327.675" width="24.0283" height="8.0051" transform="rotate(0.484513 72.3403 327.675)" fill="#FBCE65"/>
<rect x="72.8142" y="271.632" width="24.0283" height="8.0051" transform="rotate(0.484513 72.8142 271.632)" fill="#AC3B03"/>
<rect x="48.9216" y="255.42" width="24.0283" height="8.0051" transform="rotate(0.484513 48.9216 255.42)" fill="#F9B848"/>
<rect x="48.7185" y="279.437" width="24.0283" height="8.0051" transform="rotate(0.484513 48.7185 279.437)" fill="#FDB748"/>
<rect x="24.6902" y="279.234" width="24.0283" height="8.0051" transform="rotate(0.484513 24.6902 279.234)" fill="#EAA428"/>
<rect x="0.661621" y="279.03" width="24.0283" height="8.0051" transform="rotate(0.484513 0.661621 279.03)" fill="#EAA428"/>
<rect x="48.854" y="263.425" width="24.0283" height="8.0051" transform="rotate(0.484513 48.854 263.425)" fill="#E9A528"/>
<rect x="48.6506" y="287.44" width="24.0283" height="8.0051" transform="rotate(0.484513 48.6506 287.44)" fill="#E9A624"/>
<rect x="48.583" y="295.447" width="24.0283" height="8.0051" transform="rotate(0.484513 48.583 295.447)" fill="#E9A624"/>
<rect x="48.5154" y="303.456" width="24.0283" height="8.0051" transform="rotate(0.484513 48.5154 303.456)" fill="#FFCB66"/>
<rect x="48.4478" y="311.462" width="24.0283" height="8.0051" transform="rotate(0.484513 48.4478 311.462)" fill="#FFCB66"/>
<rect x="48.3799" y="319.466" width="24.0283" height="8.0051" transform="rotate(0.484513 48.3799 319.466)" fill="#FFCB66"/>
<rect x="48.3123" y="327.473" width="24.0283" height="8.0051" transform="rotate(0.484513 48.3123 327.473)" fill="#FBCE65"/>
<rect x="48.7861" y="271.429" width="24.0283" height="8.0051" transform="rotate(0.484513 48.7861 271.429)" fill="#E9A528"/>
<rect x="24.825" y="263.221" width="24.0283" height="8.0051" transform="rotate(0.484513 24.825 263.221)" fill="#AB3A02"/>
<rect x="24.6228" y="287.238" width="24.0283" height="8.0051" transform="rotate(0.484513 24.6228 287.238)" fill="#AB3A02"/>
<rect x="0.593994" y="287.034" width="24.0283" height="8.0051" transform="rotate(0.484513 0.593994 287.034)" fill="#AB3A02"/>
<rect x="0.526123" y="295.041" width="24.0283" height="8.0051" transform="rotate(0.484513 0.526123 295.041)" fill="#AB3A02"/>
<rect x="0.458496" y="303.049" width="24.0283" height="8.0051" transform="rotate(0.484513 0.458496 303.049)" fill="#EAA22D"/>
<rect x="24.5549" y="295.245" width="24.0283" height="8.0051" transform="rotate(0.484513 24.5549 295.245)" fill="#C35F00"/>
<rect x="24.4873" y="303.252" width="24.0283" height="8.0051" transform="rotate(0.484513 24.4873 303.252)" fill="#EBA428"/>
<rect x="24.4197" y="311.259" width="24.0283" height="8.0051" transform="rotate(0.484513 24.4197 311.259)" fill="#EBA428"/>
<rect x="24.3518" y="319.263" width="24.0283" height="8.0051" transform="rotate(0.484513 24.3518 319.263)" fill="#EBA428"/>
<rect x="24.7573" y="271.225" width="24.0283" height="8.0051" transform="rotate(0.484513 24.7573 271.225)" fill="#C35E02"/>
<rect x="217.186" y="248.837" width="24.0283" height="8.0051" transform="rotate(0.484513 217.186 248.837)" fill="#AC3A08"/>
<rect x="217.118" y="256.842" width="24.0283" height="8.0051" transform="rotate(0.484513 217.118 256.842)" fill="#EAA32C"/>
<rect x="216.915" y="280.86" width="24.0283" height="8.0051" transform="rotate(0.484513 216.915 280.86)" fill="#EAA428"/>
<rect x="217.05" y="264.848" width="24.0283" height="8.0051" transform="rotate(0.484513 217.05 264.848)" fill="#AD3B00"/>
<rect x="216.847" y="288.864" width="24.0283" height="8.0051" transform="rotate(0.484513 216.847 288.864)" fill="#AD3B00"/>
<rect x="216.78" y="296.871" width="24.0283" height="8.0051" transform="rotate(0.484513 216.78 296.871)" fill="#F18F12"/>
<rect x="216.712" y="304.878" width="24.0283" height="8.0051" transform="rotate(0.484513 216.712 304.878)" fill="#FACE65"/>
<rect x="216.644" y="312.884" width="24.0283" height="8.0051" transform="rotate(0.484513 216.644 312.884)" fill="#F18E17"/>
<rect x="216.441" y="336.9" width="24.0283" height="8.0051" transform="rotate(0.484513 216.441 336.9)" fill="#F18E17"/>
<rect x="216.576" y="320.888" width="24.0283" height="8.0051" transform="rotate(0.484513 216.576 320.888)" fill="#F18E17"/>
<rect x="216.509" y="328.895" width="24.0283" height="8.0051" transform="rotate(0.484513 216.509 328.895)" fill="#FBCE65"/>
<rect x="216.983" y="272.852" width="24.0283" height="8.0051" transform="rotate(0.484513 216.983 272.852)" fill="#AD3B00"/>
<rect x="169.198" y="240.423" width="24.0283" height="8.0051" transform="rotate(0.484513 169.198 240.423)" fill="#AE3903"/>
<rect x="169.13" y="248.432" width="24.0283" height="8.0051" transform="rotate(0.484513 169.13 248.432)" fill="#C25F04"/>
<rect x="169.063" y="256.436" width="24.0283" height="8.0051" transform="rotate(0.484513 169.063 256.436)" fill="#E9A624"/>
<rect x="168.86" y="280.454" width="24.0283" height="8.0051" transform="rotate(0.484513 168.86 280.454)" fill="#EAA428"/>
<rect x="168.995" y="264.441" width="24.0283" height="8.0051" transform="rotate(0.484513 168.995 264.441)" fill="#AA3701"/>
<rect x="168.792" y="288.458" width="24.0283" height="8.0051" transform="rotate(0.484513 168.792 288.458)" fill="#AA3701"/>
<rect x="168.724" y="296.465" width="24.0283" height="8.0051" transform="rotate(0.484513 168.724 296.465)" fill="#FDAE1D"/>
<rect x="168.656" y="304.472" width="24.0283" height="8.0051" transform="rotate(0.484513 168.656 304.472)" fill="#FACE65"/>
<rect x="168.589" y="312.478" width="24.0283" height="8.0051" transform="rotate(0.484513 168.589 312.478)" fill="#F18E17"/>
<rect x="168.386" y="336.494" width="24.0283" height="8.0051" transform="rotate(0.484513 168.386 336.494)" fill="#F18E17"/>
<rect x="168.521" y="320.481" width="24.0283" height="8.0051" transform="rotate(0.484513 168.521 320.481)" fill="#FFAB24"/>
<rect x="168.318" y="344.5" width="24.0283" height="8.0051" transform="rotate(0.484513 168.318 344.5)" fill="#FFAB24"/>
<rect x="168.453" y="328.488" width="24.0283" height="8.0051" transform="rotate(0.484513 168.453 328.488)" fill="#FBCE65"/>
<rect x="168.927" y="272.445" width="24.0283" height="8.0051" transform="rotate(0.484513 168.927 272.445)" fill="#C35E04"/>
<rect x="97.0452" y="247.821" width="24.0283" height="8.0051" transform="rotate(0.484513 97.0452 247.821)" fill="#C25F04"/>
<rect x="96.9773" y="255.826" width="24.0283" height="8.0051" transform="rotate(0.484513 96.9773 255.826)" fill="#EAA629"/>
<rect x="96.7742" y="279.843" width="24.0283" height="8.0051" transform="rotate(0.484513 96.7742 279.843)" fill="#EAA428"/>
<rect x="96.9097" y="263.831" width="24.0283" height="8.0051" transform="rotate(0.484513 96.9097 263.831)" fill="#AC3902"/>
<rect x="96.7065" y="287.847" width="24.0283" height="8.0051" transform="rotate(0.484513 96.7065 287.847)" fill="#AC3902"/>
<rect x="96.6387" y="295.854" width="24.0283" height="8.0051" transform="rotate(0.484513 96.6387 295.854)" fill="#C35E02"/>
<rect x="96.571" y="303.862" width="24.0283" height="8.0051" transform="rotate(0.484513 96.571 303.862)" fill="#FFCB66"/>
<rect x="96.5034" y="311.868" width="24.0283" height="8.0051" transform="rotate(0.484513 96.5034 311.868)" fill="#F18E17"/>
<rect x="96.3005" y="335.885" width="24.0283" height="8.0051" transform="rotate(0.484513 96.3005 335.885)" fill="#FFAB24"/>
<rect x="96.4355" y="319.872" width="24.0283" height="8.0051" transform="rotate(0.484513 96.4355 319.872)" fill="#FFAB24"/>
<rect x="96.3682" y="327.879" width="24.0283" height="8.0051" transform="rotate(0.484513 96.3682 327.879)" fill="#FBCE65"/>
<rect x="96.842" y="271.835" width="24.0283" height="8.0051" transform="rotate(0.484513 96.842 271.835)" fill="#C25D01"/>
<rect x="241.215" y="249.041" width="24.0283" height="8.0051" transform="rotate(0.484513 241.215 249.041)" fill="#C25F04"/>
<rect x="241.147" y="257.044" width="24.0283" height="8.0051" transform="rotate(0.484513 241.147 257.044)" fill="#E7A52D"/>
<rect x="240.944" y="281.062" width="24.0283" height="8.0051" transform="rotate(0.484513 240.944 281.062)" fill="#EAA428"/>
<rect x="241.08" y="265.052" width="24.0283" height="8.0051" transform="rotate(0.484513 241.08 265.052)" fill="#AA3A08"/>
<rect x="240.876" y="289.066" width="24.0283" height="8.0051" transform="rotate(0.484513 240.876 289.066)" fill="#AA3A08"/>
<rect x="240.808" y="297.073" width="24.0283" height="8.0051" transform="rotate(0.484513 240.808 297.073)" fill="#C25E01"/>
<rect x="240.741" y="305.082" width="24.0283" height="8.0051" transform="rotate(0.484513 240.741 305.082)" fill="#C25E01"/>
<rect x="240.673" y="313.088" width="24.0283" height="8.0051" transform="rotate(0.484513 240.673 313.088)" fill="#F18E17"/>
<rect x="240.47" y="337.104" width="24.0283" height="8.0051" transform="rotate(0.484513 240.47 337.104)" fill="#FDAD23"/>
<rect x="240.605" y="321.092" width="24.0283" height="8.0051" transform="rotate(0.484513 240.605 321.092)" fill="#FFAB24"/>
<rect x="240.538" y="329.098" width="24.0283" height="8.0051" transform="rotate(0.484513 240.538 329.098)" fill="#FBCE65"/>
<rect x="241.012" y="273.056" width="24.0283" height="8.0051" transform="rotate(0.484513 241.012 273.056)" fill="#C35F01"/>
<rect x="265.175" y="257.248" width="24.0283" height="8.0051" transform="rotate(0.484513 265.175 257.248)" fill="#F6B946"/>
<rect x="264.972" y="281.267" width="24.0283" height="8.0051" transform="rotate(0.484513 264.972 281.267)" fill="#EAA428"/>
<rect x="289" y="281.468" width="24.0283" height="8.0051" transform="rotate(0.484513 289 281.468)" fill="#FEB849"/>
<rect x="313.028" y="281.672" width="24.0283" height="8.0051" transform="rotate(0.484513 313.028 281.672)" fill="#EBA627"/>
<rect x="265.107" y="265.254" width="24.0283" height="8.0051" transform="rotate(0.484513 265.107 265.254)" fill="#F6B946"/>
<rect x="264.904" y="289.271" width="24.0283" height="8.0051" transform="rotate(0.484513 264.904 289.271)" fill="#F6B946"/>
<rect x="264.836" y="297.277" width="24.0283" height="8.0051" transform="rotate(0.484513 264.836 297.277)" fill="#F6B946"/>
<rect x="264.769" y="305.284" width="24.0283" height="8.0051" transform="rotate(0.484513 264.769 305.284)" fill="#F6B946"/>
<rect x="264.701" y="313.29" width="24.0283" height="8.0051" transform="rotate(0.484513 264.701 313.29)" fill="#F6B946"/>
<rect x="264.633" y="321.294" width="24.0283" height="8.0051" transform="rotate(0.484513 264.633 321.294)" fill="#F6B946"/>
<rect x="264.565" y="329.301" width="24.0283" height="8.0051" transform="rotate(0.484513 264.565 329.301)" fill="#FBCE65"/>
<rect x="265.04" y="273.258" width="24.0283" height="8.0051" transform="rotate(0.484513 265.04 273.258)" fill="#F6B946"/>
<rect x="289.135" y="265.457" width="24.0283" height="8.0051" transform="rotate(0.484513 289.135 265.457)" fill="#AD3B00"/>
<rect x="288.932" y="289.472" width="24.0283" height="8.0051" transform="rotate(0.484513 288.932 289.472)" fill="#AD3B00"/>
<rect x="288.865" y="297.479" width="24.0283" height="8.0051" transform="rotate(0.484513 288.865 297.479)" fill="#AC3B03"/>
<rect x="288.797" y="305.487" width="24.0283" height="8.0051" transform="rotate(0.484513 288.797 305.487)" fill="#FFB54C"/>
<rect x="288.729" y="313.493" width="24.0283" height="8.0051" transform="rotate(0.484513 288.729 313.493)" fill="#BF5C01"/>
<rect x="288.661" y="321.497" width="24.0283" height="8.0051" transform="rotate(0.484513 288.661 321.497)" fill="#FEAC22"/>
<rect x="312.96" y="289.676" width="24.0283" height="8.0051" transform="rotate(0.484513 312.96 289.676)" fill="#AD3B00"/>
<rect x="312.893" y="297.683" width="24.0283" height="8.0051" transform="rotate(0.484513 312.893 297.683)" fill="#C55D04"/>
<rect x="312.825" y="305.689" width="24.0283" height="8.0051" transform="rotate(0.484513 312.825 305.689)" fill="#EAA428"/>
<rect x="289.068" y="273.461" width="24.0283" height="8.0051" transform="rotate(0.484513 289.068 273.461)" fill="#C25D01"/>
<rect x="193.226" y="240.627" width="24.0283" height="8.0051" transform="rotate(0.484513 193.226 240.627)" fill="#FDB748"/>
<rect x="193.159" y="248.635" width="24.0283" height="8.0051" transform="rotate(0.484513 193.159 248.635)" fill="#E9A02D"/>
<rect x="193.091" y="256.64" width="24.0283" height="8.0051" transform="rotate(0.484513 193.091 256.64)" fill="#E9A02D"/>
<rect x="192.888" y="280.656" width="24.0283" height="8.0051" transform="rotate(0.484513 192.888 280.656)" fill="#FCB549"/>
<rect x="193.023" y="264.646" width="24.0283" height="8.0051" transform="rotate(0.484513 193.023 264.646)" fill="#E9A02D"/>
<rect x="192.82" y="288.66" width="24.0283" height="8.0051" transform="rotate(0.484513 192.82 288.66)" fill="#E9A02D"/>
<rect x="192.752" y="296.667" width="24.0283" height="8.0051" transform="rotate(0.484513 192.752 296.667)" fill="#FACE65"/>
<rect x="192.685" y="304.676" width="24.0283" height="8.0051" transform="rotate(0.484513 192.685 304.676)" fill="#FACE65"/>
<rect x="192.617" y="312.682" width="24.0283" height="8.0051" transform="rotate(0.484513 192.617 312.682)" fill="#FACE65"/>
<rect x="192.414" y="336.698" width="24.0283" height="8.0051" transform="rotate(0.484513 192.414 336.698)" fill="#FACE65"/>
<rect x="192.549" y="320.686" width="24.0283" height="8.0051" transform="rotate(0.484513 192.549 320.686)" fill="#FACE65"/>
<rect x="192.346" y="344.703" width="24.0283" height="8.0051" transform="rotate(0.484513 192.346 344.703)" fill="#FACE65"/>
<rect x="192.482" y="328.692" width="24.0283" height="8.0051" transform="rotate(0.484513 192.482 328.692)" fill="#FBCE65"/>
<rect x="192.956" y="272.649" width="24.0283" height="8.0051" transform="rotate(0.484513 192.956 272.649)" fill="#E9A02D"/>
<rect x="282" y="159" width="10" height="60" fill="#353535"/>
<rect x="262" y="229" width="10" height="40" fill="#353535"/>
<rect x="252" y="139" width="10" height="10" fill="#353535"/>
<rect x="242" y="149" width="10" height="10" fill="#353535"/>
<rect x="242" y="159" width="10" height="10" fill="#353535"/>
<rect x="252" y="169" width="10" height="10" fill="#353535"/>
<rect x="182" y="159" width="10" height="20" fill="#353535"/>
<rect x="172" y="139" width="10" height="20" fill="#353535"/>
<rect x="81.9995" y="139" width="10" height="20" fill="#353535"/>
<rect x="71.9998" y="159" width="10" height="20" fill="#353535"/>
<rect x="252" y="209" width="10" height="20" fill="#353535"/>
<rect x="262" y="179" width="10" height="20" fill="#353535"/>
<rect x="272" y="199" width="10" height="30" transform="rotate(90 272 199)" fill="#353535"/>
<rect x="232" y="179" width="10" height="40" transform="rotate(90 232 179)" fill="#353535"/>
<rect x="252" y="269" width="10" height="10" fill="#353535"/>
<rect x="232" y="189" width="10" height="10" fill="#353535"/>
<rect x="162" y="129" width="10" height="10" fill="#353535"/>
<rect x="152" y="139" width="10" height="10" fill="#353535"/>
<rect x="102" y="139" width="10" height="10" fill="#353535"/>
<rect x="91.9998" y="189" width="10" height="10" fill="#353535"/>
<rect x="122" y="209" width="10" height="10" fill="#353535"/>
<rect x="112" y="209" width="10" height="10" fill="#353535"/>
<rect x="132" y="209" width="10" height="10" fill="#353535"/>
<rect x="152" y="189" width="10" height="10" fill="#353535"/>
<rect x="91.9998" y="129" width="10" height="10" fill="#353535"/>
<rect x="112" y="149" width="40" height="10" fill="#353535"/>
<rect x="242" y="279" width="10" height="10" fill="#353535"/>
<rect x="81.9995" y="279" width="10" height="10" fill="#353535"/>
<rect x="122" y="279" width="10" height="10" fill="#353535"/>
<rect x="162" y="279" width="30" height="10" fill="#353535"/>
<rect x="212" y="279" width="10" height="10" fill="#353535"/>
<rect x="71.9998" y="269" width="10" height="10" fill="#353535"/>
<rect x="62" y="179" width="10" height="60" fill="#353535"/>
<rect x="72" y="239" width="10" height="30" fill="#353535"/>
<rect x="272" y="219" width="10" height="10" fill="#353535"/>
<rect x="242" y="289" width="10" height="150" transform="rotate(90 242 289)" fill="#353535"/>
<rect x="262" y="149" width="20" height="10" fill="#353535"/>
<rect x="132" y="159" width="10" height="10" fill="white"/>
<rect x="152" y="159" width="10" height="10" fill="white"/>
<rect x="102" y="209" width="10" height="10" fill="white"/>
<rect x="232" y="199" width="10" height="10" fill="white"/>
<rect x="272" y="189" width="10" height="10" fill="white"/>
<rect x="222" y="279" width="10" height="10" fill="white"/>
<rect x="192" y="279" width="20" height="10" fill="white"/>
<rect x="142" y="279" width="20" height="10" fill="white"/>
<rect x="102" y="279" width="20" height="10" fill="white"/>
<rect x="272" y="209" width="10" height="10" fill="white"/>
<rect x="162" y="189" width="10" height="10" fill="white"/>
<rect x="102" y="159" width="10" height="10" fill="white"/>
<rect x="72" y="189" width="10" height="40" fill="white"/>
<rect x="242" y="219" width="10" height="50" fill="white"/>
<rect x="92" y="149" width="10" height="40" fill="white"/>
<rect x="82" y="209" width="10" height="30" fill="white"/>
<rect x="82" y="169" width="10" height="30" fill="white"/>
<rect x="182" y="189" width="10" height="20" fill="white"/>
<rect x="202" y="189" width="10" height="20" fill="white"/>
<rect x="222" y="189" width="10" height="20" fill="white"/>
<rect x="262" y="209" width="10" height="20" fill="white"/>
<rect x="252" y="229" width="10" height="30" fill="white"/>
<rect x="92" y="199" width="10" height="20" fill="white"/>
<rect x="162" y="149" width="10" height="20" fill="white"/>
<rect x="172" y="189" width="10" height="20" fill="white"/>
<rect x="152" y="169" width="30" height="20" fill="white"/>
<rect x="252" y="149" width="10" height="20" fill="white"/>
<rect x="92" y="219" width="150" height="60" fill="white"/>
<rect x="102" y="169" width="50" height="40" fill="white"/>
<rect x="142" y="209" width="110" height="10" fill="white"/>
<rect x="262" y="159" width="20" height="20" fill="white"/>
<rect x="152" y="199" width="10" height="10" fill="white"/>
<rect x="145" y="224" width="10" height="10" fill="white"/>
<rect x="81.9995" y="269" width="10" height="10" fill="#B3B3B3"/>
<rect x="91.9998" y="279" width="10" height="10" fill="#B3B3B3"/>
<rect x="72" y="229" width="10" height="10" fill="#B3B3B3"/>
<rect x="132" y="279" width="10" height="10" fill="#B3B3B3"/>
<rect x="232" y="279" width="10" height="10" fill="#B3B3B3"/>
<rect x="242" y="269" width="10" height="10" fill="#B3B3B3"/>
<rect x="252" y="259" width="10" height="10" fill="#B3B3B3"/>
<rect x="272" y="199" width="10" height="10" fill="#B3B3B3"/>
<rect x="272" y="179" width="10" height="10" fill="#B3B3B3"/>
<rect x="182" y="179" width="10" height="10" fill="#B3B3B3"/>
<rect x="162" y="199" width="10" height="10" fill="#B3B3B3"/>
<rect x="81.9995" y="199" width="10" height="10" fill="#B3B3B3"/>
<rect x="172" y="159" width="10" height="10" fill="#B3B3B3"/>
<rect x="152" y="149" width="10" height="10" fill="#B3B3B3"/>
<rect x="142" y="159" width="10" height="10" fill="#B3B3B3"/>
<rect x="102" y="149" width="10" height="10" fill="#B3B3B3"/>
<rect x="92" y="139" width="10" height="10" fill="#B3B3B3"/>
<rect x="162" y="139" width="10" height="10" fill="#B3B3B3"/>
<rect x="81.9995" y="159" width="10" height="10" fill="#B3B3B3"/>
<rect x="71.9998" y="179" width="10" height="10" fill="#B3B3B3"/>
<rect x="212" y="189" width="10" height="20" fill="#B3B3B3"/>
<rect x="192" y="189" width="10" height="20" fill="#B3B3B3"/>
<rect x="112" y="159" width="20" height="10" fill="#B3B3B3"/>
<rect x="81.9998" y="239" width="10" height="30" fill="#B3B3B3"/>
<rect x="108" y="10" width="10" height="10" fill="#C4C4C4"/>
<rect x="138" y="100" width="10" height="10" transform="rotate(-180 138 100)" fill="#C4C4C4"/>
<rect x="108" y="40" width="10" height="10" fill="#C4C4C4"/>
<rect x="138" y="70" width="10" height="10" transform="rotate(-180 138 70)" fill="#C4C4C4"/>
<rect x="98" y="20" width="10" height="20" fill="#C4C4C4"/>
<rect x="148" y="90" width="10" height="20" transform="rotate(-180 148 90)" fill="#C4C4C4"/>
<rect x="118" width="10" height="10" fill="#C4C4C4"/>
<rect x="128" y="110" width="10" height="10" transform="rotate(-180 128 110)" fill="#C4C4C4"/>
<rect x="118" y="50" width="10" height="10" fill="#C4C4C4"/>
<rect x="153" y="10" width="10" height="10" fill="#C4C4C4"/>
<rect x="183" y="100" width="10" height="10" transform="rotate(-180 183 100)" fill="#C4C4C4"/>
<rect x="153" y="40" width="10" height="10" fill="#C4C4C4"/>
<rect x="183" y="70" width="10" height="10" transform="rotate(-180 183 70)" fill="#C4C4C4"/>
<rect x="143" y="20" width="10" height="20" fill="#C4C4C4"/>
<rect x="193" y="90" width="10" height="20" transform="rotate(-180 193 90)" fill="#C4C4C4"/>
<rect x="163" width="10" height="10" fill="#C4C4C4"/>
<rect x="173" y="110" width="10" height="10" transform="rotate(-180 173 110)" fill="#C4C4C4"/>
<rect x="163" y="50" width="10" height="10" fill="#C4C4C4"/>
<rect x="202" y="10" width="10" height="10" fill="#C4C4C4"/>
<rect x="232" y="100" width="10" height="10" transform="rotate(-180 232 100)" fill="#C4C4C4"/>
<rect x="202" y="40" width="10" height="10" fill="#C4C4C4"/>
<rect x="232" y="70" width="10" height="10" transform="rotate(-180 232 70)" fill="#C4C4C4"/>
<rect x="192" y="20" width="10" height="20" fill="#C4C4C4"/>
<rect x="242" y="90" width="10" height="20" transform="rotate(-180 242 90)" fill="#C4C4C4"/>
<rect x="212" width="10" height="10" fill="#C4C4C4"/>
<rect x="222" y="110" width="10" height="10" transform="rotate(-180 222 110)" fill="#C4C4C4"/>
<rect x="212" y="50" width="10" height="10" fill="#C4C4C4"/>
</svg>
